<svg width="111" height="31" viewBox="0 0 111 31" fill="none" xmlns="http://www.w3.org/2000/svg">
<g clip-path="url(#clip0_110_2)">
<path d="M110.629 2.20874H31.1538V3.96856H110.629V2.20874Z" fill="#41454C"/>
<path d="M65.7313 0H48.6743V6.708H54.7262V9.62026L57.2037 12.9511L59.6812 9.62026V6.708H65.7313V0Z" fill="#41454C"/>
<path d="M44.0649 15.1402H36.5279V18.4693H43.9147V23.5226H36.5279V30.5298H31.1572V10.0852H44.0685L44.0649 15.1402Z" fill="#289ED9"/>
<path d="M81.5355 30.5298L77.8732 23.9287H75.9505V30.5298H70.5762V10.0852H78.9829C81.1253 10.0852 82.9216 10.752 84.3719 12.0855C85.8221 13.419 86.5479 15.1082 86.5491 17.153C86.5597 18.3429 86.2266 19.5118 85.5878 20.5266C84.9509 21.5464 84.0515 22.3869 82.9784 22.9651L87.2999 30.5298H81.5355ZM75.9505 14.9051V19.4899H78.9225C79.2225 19.5095 79.5233 19.4648 79.8036 19.3589C80.084 19.2531 80.337 19.0886 80.5448 18.8772C80.7572 18.6535 80.9222 18.3913 81.0303 18.1055C81.1384 17.8197 81.1875 17.516 81.1747 17.2118C81.1875 16.9075 81.1384 16.6038 81.0303 16.318C80.9222 16.0323 80.7572 15.77 80.5448 15.5464C80.3359 15.3346 80.0834 15.1681 79.8039 15.0576C79.5243 14.9471 79.224 14.8952 78.9225 14.9051H75.9505Z" fill="#289ED9"/>
<path d="M110.628 10.0852V30.5298H105.283V19.5202L100.18 27.7262H99.6307L94.5566 19.5487V30.5298H89.1914V10.0852H94.5658L99.909 18.8131L105.283 10.0852H110.628Z" fill="#289ED9"/>
<path d="M64.973 12.9849H57.2035V13.7828H48.7053C47.3929 15.3759 46.5818 17.3039 46.3694 19.3349C46.157 21.3658 46.5525 23.4132 47.5082 25.2307C48.4639 27.0482 49.9392 28.5583 51.7565 29.5794C53.5738 30.6004 55.6557 31.0889 57.7517 30.9861C59.8477 30.8833 61.8685 30.1935 63.571 28.9998C65.2734 27.8061 66.585 26.1593 67.3479 24.2575C68.1109 22.3557 68.2926 20.28 67.8712 18.2801C67.4499 16.2803 66.4435 14.4414 64.973 12.9849V12.9849Z" fill="url(#paint0_linear_110_2)"/>
<path d="M23.5931 16.2676C24.7931 17.6748 25.3925 19.3699 25.3913 21.353C25.3958 23.0281 24.9003 24.6685 23.9648 26.0749C23.0151 27.5367 21.5502 28.7242 19.5701 29.6373C17.5901 30.5505 15.1223 31.0023 12.1669 30.9928C10.1174 30.9934 8.07375 30.7803 6.07102 30.3569C4.21353 29.9895 2.42341 29.3524 0.760742 28.4671L4.06776 21.4723C5.26394 22.149 6.54974 22.6632 7.88934 23.0006C9.17672 23.3391 10.5037 23.5146 11.8373 23.5225C12.9652 23.5225 13.8741 23.3348 14.5638 22.9596C15.2535 22.5844 15.5978 22.05 15.5966 21.3565C15.5941 20.0622 14.4509 19.415 12.1669 19.415H8.32148V13.5941L12.5789 9.37261H2.24762V2.21753H23.8202V8.04561L18.4495 13.3589C20.6798 13.8921 22.3943 14.8617 23.5931 16.2676Z" fill="#41454C"/>
</g>
<defs>
<linearGradient id="paint0_linear_110_2" x1="57" y1="13" x2="57" y2="31" gradientUnits="userSpaceOnUse">
<stop offset="0.224242" stop-color="#B1D2F9"/>
<stop offset="1" stop-color="#77ADEF"/>
</linearGradient>
<clipPath id="clip0_110_2">
<rect width="109.868" height="31" fill="white" transform="translate(0.760742)"/>
</clipPath>
</defs>
</svg>
