<svg width="744" height="649" viewBox="0 0 744 649" fill="none" xmlns="http://www.w3.org/2000/svg">
<rect opacity="0.2" width="2.2057" height="640.611" transform="matrix(0.740297 0.67228 -0.634228 0.773146 497.293 79.89)" fill="#1E88E5"/>
<path d="M110.006 66.1296C22.7765 229.625 76.5578 436.982 231.314 530.991C386.071 624.999 583.636 570.326 674.594 409.095C675.721 407.096 675.073 404.505 673.159 403.343L115.458 64.5603C113.545 63.3981 111.088 64.1027 110.006 66.1296Z" fill="url(#paint0_radial_105_779)"/>
<g filter="url(#filter0_d_105_779)">
<path d="M110.006 66.1296C22.7765 229.625 76.5579 436.982 231.314 530.991C386.071 624.999 583.636 570.326 674.594 409.095C675.721 407.096 675.073 404.505 673.159 403.343L115.458 64.5603C113.545 63.3981 111.088 64.1027 110.006 66.1296Z" fill="url(#paint1_radial_105_779)"/>
</g>
<rect opacity="0.2" x="665" y="433.135" width="3.15649" height="554" transform="rotate(90 665 433.135)" fill="#1E88E5"/>
<path d="M126.81 433.691C126.81 433.691 126.185 428.81 124.738 425.908C123.292 423.006 114.073 424.853 114.073 424.853C114.073 424.853 112.23 426.436 111.834 433.825L126.81 433.691Z" fill="#233862"/>
<path d="M158.212 433.626C156.047 432.301 157.278 422.419 157.278 422.419C157.278 422.419 167.369 414.329 168.759 420.524C170.149 426.719 178.343 429.499 183.011 430.256C186.235 430.781 187.231 432.568 187.54 433.626H158.212Z" fill="#233862"/>
<path d="M137.311 361.757C137.666 363.56 137.912 365.384 138.05 367.217C138.99 385.555 153.454 427.482 156.041 428.458C160.044 429.973 166.347 426.756 169.648 425.701C171.012 425.264 171.935 423.883 171.629 422.481C164.465 389.481 161.833 341.963 160.873 313.842C160.389 299.673 157.96 289.884 157.96 289.884C157.96 289.884 122.683 280.45 122.474 292.383C122.293 302.924 134.164 344.335 137.311 361.757Z" fill="#22539F"/>
<path d="M137.312 361.757L160.879 313.819C160.395 299.65 157.966 289.861 157.966 289.861C157.966 289.861 122.689 280.427 122.48 292.36C122.293 302.924 134.164 344.334 137.312 361.757Z" fill="#204886"/>
<path d="M145.16 292.409L126.51 427.862C126.51 427.862 118.318 429.848 111.95 428.259C111.95 428.259 106.489 356.211 106.945 338.8C107.401 321.39 103.025 292.196 107.942 288.979C112.858 285.762 145.16 292.409 145.16 292.409Z" fill="#22539F"/>
<path d="M104.307 290.151C104.266 290.745 104.428 291.334 104.768 291.822C105.108 292.31 105.605 292.666 106.175 292.832C108.777 293.586 111.777 294.114 117.563 295.314C124.714 296.761 131.991 297.494 139.287 297.5C153.573 297.594 158.982 292.659 158.982 292.659C159.596 292.659 158.657 289.674 157.807 275.426C157.524 270.604 157.241 264.486 157.046 256.753C156.865 249.798 156.743 241.533 156.732 231.729C156.715 219.935 138.5 207.247 138.163 207.247C138.163 208.949 135.491 212.069 131.37 212.353C126.487 212.674 120.498 210.237 120.498 207.42C120.498 207.392 111.672 221.569 108.539 236.674C108.14 238.591 107.831 240.611 107.585 242.735C106.846 249.146 107.565 244.576 104.307 290.151Z" fill="#F99746"/>
<path d="M138.164 207.25C138.164 207.25 155.102 207.105 159.18 212.835C163.259 218.565 172.201 249.384 167.531 259.638C162.86 269.892 154.145 255.386 149.293 249.118C144.442 242.849 138.164 207.25 138.164 207.25Z" fill="#F99746"/>
<path d="M138.336 204.657V206.413C138.336 206.413 138.812 211.899 132.069 212.702C125.327 213.505 120.297 211.703 120.481 207.449C121.087 204.17 121.667 200.788 121.709 198.088C121.725 196.988 121.645 195.889 121.472 194.803L134.537 194.542L138.387 195.172L138.336 204.657Z" fill="#FFB27D"/>
<path d="M138.387 195.166L138.336 204.657C136.862 205.348 135.253 205.704 133.626 205.699C127.622 205.699 123.739 201.285 121.709 198.082C121.725 196.983 121.645 195.884 121.472 194.798L134.538 194.537L138.387 195.166Z" fill="#E2915A"/>
<path d="M120.461 192.699C121.978 200.876 132.505 200.607 137.054 200.093C138.336 199.949 139.14 199.787 139.14 199.787C140.586 199.398 141.404 197.121 141.764 194.137C142.508 188.228 141.569 179.557 140.572 177.339C139.075 174.003 136.253 170.392 125.65 172.996C115.046 175.6 118.525 182.203 120.461 192.699Z" fill="#FFB27D"/>
<path d="M155.486 230.218C155.486 230.218 162.036 244.718 161.847 249.064C159.699 249.033 157.557 249.309 155.486 249.883C150.363 251.415 155.486 230.218 155.486 230.218Z" fill="#ED7D2B"/>
<path d="M143.836 169.547C140.326 169.147 136.897 168.218 133.666 166.79C129.196 164.844 123.561 166.988 121.732 167.953C121.798 167.557 121.95 167.18 122.176 166.849C122.176 166.849 121.356 167.433 121.234 168.25C121.149 168.313 121.112 168.355 121.135 168.37C121.157 168.384 120.204 168.199 119.603 168.469C119.603 168.469 120.022 168.409 120.17 168.679C120.188 168.707 120.211 168.732 120.238 168.752C113.269 172.128 112.623 183.165 114.859 185.718C117.557 188.79 121.554 195.629 121.554 195.629C121.554 195.629 121.973 194.074 121.48 191.374C120.988 188.674 123.32 188.671 126.264 187.442C129.208 186.214 126.756 182.771 129.329 180.683C131.902 178.595 141.351 179.832 141.218 178.224C144.744 176.942 143.836 169.907 143.836 169.547Z" fill="#233862"/>
<path d="M118.335 257.372C121.101 268.502 151.009 274.252 157.808 275.421C157.524 270.599 157.241 264.48 157.046 256.748L118.335 257.372Z" fill="#ED7D2B"/>
<path d="M124.9 260.997C124.617 260.997 118.251 260.044 117.113 259.474C115.975 258.904 110.758 251.478 114.172 249.574C117.586 247.671 126.751 255.284 126.751 255.284L124.9 260.997Z" fill="#FFB27D"/>
<path d="M163.607 263.201C163.607 263.201 138.982 264.54 122.477 260.997C122.477 260.997 122.061 256.215 127.252 254.09C127.252 254.09 152.996 248.621 159.18 250.144C165.365 251.668 163.607 263.201 163.607 263.201Z" fill="#F99746"/>
<path d="M107.084 243.844C112.179 250.017 118.868 255.057 126.23 256.237C127.68 253.753 128.317 250.877 128.05 248.011C127.863 245.768 127.125 243.189 125.37 240.449C124.794 239.521 124.311 238.538 123.926 237.516C119.907 227.239 120.504 207.429 120.504 207.429C120.504 207.429 103.433 209.222 98.1142 216.835C94.8562 221.492 99.0115 234.087 107.084 243.844Z" fill="#F99746"/>
<path d="M137.063 200.074C138.345 199.929 139.149 199.767 139.149 199.767C140.595 199.379 141.413 197.101 141.773 194.117C139.067 194.783 137.827 196.88 137.309 197.773C137.077 198.187 137.029 199.087 137.063 200.074Z" fill="#E2915A"/>
<path d="M143.955 204.709C143.955 204.709 149.851 194.959 145.265 194.537C140.68 194.114 138.84 197.22 138.189 198.363C137.538 199.506 138.362 204.657 138.362 204.657L143.955 204.709Z" fill="#FFB27D"/>
<path d="M121.472 247.671C121.649 248.84 121.987 249.979 122.477 251.055C123.372 253.015 124.648 254.776 126.23 256.237V256.237C141.54 249.31 144.629 225.529 145.158 212.461C145.367 207.208 145.158 203.687 145.158 203.687C138.251 201.396 136.31 205.389 136.31 205.389C136.31 205.389 128.158 224.808 123.926 237.516C122.307 242.372 121.265 246.247 121.472 247.671Z" fill="#F99746"/>
<path d="M107.084 243.844C112.179 250.017 118.868 255.057 126.23 256.237C141.54 249.31 144.628 225.529 145.158 212.461C145.158 212.461 137.912 238.795 128.05 248C126.269 249.665 124.398 250.771 122.474 251.058C122.474 251.058 110.039 247.535 107.429 244.219C107.336 244.075 107.22 243.948 107.084 243.844Z" fill="#ED7D2B"/>
<path d="M630.549 195.294C626.021 192.94 622.392 194.42 622.392 194.42C608.539 192.789 604.497 208.98 604.687 214.56C604.876 220.139 605.508 226.113 599.309 233.349C581.439 254.255 618.868 255.191 618.868 255.191C619.182 238.486 639.163 244.582 638.288 246.273C663.91 252.414 640.844 200.641 630.549 195.294Z" fill="#163560"/>
<path d="M577.109 264.925C577.109 264.925 574.671 261.21 572.71 261.136C570.748 261.062 567.122 260.044 567.405 260.776C567.689 261.507 569.953 261.578 570.171 262.015C570.389 262.452 566.825 263.107 565.806 263.181C564.787 263.255 562.39 263.181 562.461 263.692C562.531 264.202 566.786 266.315 569.786 266.023C572.786 265.731 576.497 266.897 576.497 266.897L577.109 264.925Z" fill="#FFB27D"/>
<path d="M612.343 266.128C611.278 268.123 610.03 270.013 608.616 271.776C605.723 275.41 601.256 279.608 595.654 280.436C592.977 280.833 590.358 280.254 587.953 279.182C581.159 276.153 576.027 269.189 576.027 269.189C574.827 265.91 576.789 263.686 576.789 263.686C576.789 263.686 590.534 266.786 591.845 266.128C593.155 265.47 600.789 243.436 602.601 240.659C604.412 237.882 610.617 236.449 610.617 236.449L612.343 266.128Z" fill="#F9DDBF"/>
<path d="M608.616 271.776C605.723 275.409 601.256 279.607 595.655 280.436C592.977 280.833 590.359 280.254 587.953 279.182C588.219 279.219 595.029 280.058 597.727 275.211C600.489 270.255 603.478 262.384 607.585 264.999C609.357 266.131 609.278 268.945 608.616 271.776Z" fill="#F2CCAA"/>
<path d="M663.622 414.8C663.622 414.8 667.814 418.638 666.996 421.361C666.178 424.084 662.394 425.899 661.881 429.235C661.369 432.571 659.334 434.383 657.483 434.383H648.708C648.708 434.383 647.352 432.038 650.627 431.331C653.902 430.625 655.133 426.711 654.929 423.077C654.726 419.443 655.235 414.599 655.235 414.599L662.193 412.985L663.622 414.8Z" fill="#233862"/>
<path d="M628.124 416.437C628.124 416.437 629.633 432.684 627.79 433.592L604.229 433.544C604.229 433.544 604.228 430.818 608.013 430.214C611.797 429.61 618.446 427.377 619.57 422.442C620.694 417.506 628.124 416.437 628.124 416.437Z" fill="#233862"/>
<path d="M644.915 299.866C640.066 288.968 637.1 285.84 637.666 282.458C638.088 279.94 636.384 235.519 636.384 235.519C635.817 235.34 634.654 235.182 634.023 235.04C633.044 234.83 632.134 234.375 631.378 233.717C630.623 233.058 630.046 232.218 629.703 231.276C628.877 228.958 628.22 225.54 628.237 221.254L627.614 221.376L617.173 223.45C617.173 223.45 617.407 226.743 617.416 229.846V229.923C617.424 231.234 617.005 232.512 616.223 233.562C615.44 234.613 614.336 235.379 613.08 235.743C611.761 236.126 610.614 236.45 610.614 236.45C610.614 236.45 606.779 247.424 606.046 258.694C605.312 269.963 613.02 274.862 605.989 297.39C598.808 320.394 647.595 305.877 644.915 299.866Z" fill="#FFB27D"/>
<path d="M617.172 223.45C617.172 223.45 617.407 226.743 617.416 229.846C623.261 229.681 626.349 224.337 627.606 221.376L617.172 223.45Z" fill="#E8945B"/>
<path d="M615.22 226.385C615.22 226.385 629.047 226.615 629.058 217.984C629.07 209.352 630.858 203.568 622.03 203.058C613.201 202.547 611.483 205.837 610.778 208.731C610.074 211.624 611.622 226.105 615.22 226.385Z" fill="#FFB27D"/>
<path d="M615.731 202.845C615.731 202.845 619.516 212.971 625.327 214.475C631.138 215.978 633.657 214.412 633.657 214.412C630.793 211.888 628.892 208.445 628.279 204.672C628.279 204.672 618.587 198.026 615.731 202.845Z" fill="#163560"/>
<path d="M616.657 203.668C616.657 203.668 613.849 204.72 612.694 206.771C611.3 209.168 610.649 211.927 610.826 214.696C610.826 214.696 607.973 207.812 611.18 203.917C614.588 199.79 616.657 203.668 616.657 203.668Z" fill="#163560"/>
<path d="M618.229 221.033C617.873 221.436 617.43 221.75 616.933 221.953C616.436 222.155 615.899 222.239 615.364 222.199C614.916 222.171 614.483 222.026 614.109 221.776C613.736 221.527 613.434 221.184 613.235 220.78C613.235 220.78 616.06 220.108 618.229 221.033Z" fill="#EBF3FA"/>
<path d="M646.251 255.171C646.461 258.805 646.461 262.449 646.251 266.083C646.016 270.029 642.033 275.316 641.467 276.624C640.052 279.903 638.45 280.436 638.45 280.436L626.077 283.468L621.729 284.538L608.01 280.43C608.01 280.43 601.763 262.954 604.271 253.114C606.778 243.274 610.614 236.444 610.614 236.444C610.614 236.444 621.806 247.43 636.372 235.513L646.251 255.171Z" fill="#F9DDBF"/>
<path d="M642.628 267.694C642.395 271.639 642.033 275.316 641.467 276.623C640.052 279.902 638.45 280.436 638.45 280.436L626.077 283.468L620.699 281.885C620.699 281.885 638.636 279.162 636.649 263.697L642.628 267.694Z" fill="#F2CCAA"/>
<path d="M608.882 283.088C608.882 283.088 602.088 304.28 601.652 311.493C601.217 318.706 614.639 413.986 615.18 417.296C615.689 420.431 619.57 422.428 619.57 422.428C619.57 422.428 621.356 423.483 623.906 422.762C627.442 421.761 628.56 420.564 628.56 420.564C628.56 420.564 633.847 352.612 630.575 328.339C628.583 313.329 627.477 298.214 627.263 283.074L608.882 283.088Z" fill="#DF7E03"/>
<path d="M637.666 282.458C637.666 282.458 648.028 296.391 648.988 305.809C649.947 315.226 650.505 348.314 652.563 357.496C654.621 366.678 662.187 384.35 662.187 412.991C662.187 412.991 661.4 414.633 658.974 415.507C658.046 415.82 657.101 416.081 656.143 416.289C655.171 416.511 654.152 416.399 653.251 415.97C652.35 415.542 651.619 414.822 651.176 413.927C646.064 403.61 629.777 370.34 628.942 363.436C628.353 358.549 623.21 326.204 611.992 307.221C609.301 302.666 613.646 284.546 613.646 284.546L637.666 282.458Z" fill="#FB8C00"/>
<path d="M617.92 221.263C617.92 221.263 617.682 222.281 615.157 222.114C615.157 222.114 613.037 221.983 613.102 220.866C613.102 220.874 615.157 220.08 617.92 221.263Z" fill="white"/>
<path d="M607.798 279.817C607.798 279.817 610.523 281.979 615.944 282.087C622.415 282.217 638.45 280.433 638.45 280.433C638.891 281.756 639.123 283.14 639.135 284.535C639.135 284.535 619.547 289.484 608.2 285.258C608.2 285.261 606.75 282.501 607.798 279.817Z" fill="#233862"/>
<path d="M614.393 287.677C612.765 287.677 611.44 286.174 611.44 284.327C611.44 282.481 612.765 280.98 614.393 280.98C616.02 280.98 617.345 282.481 617.345 284.327C617.345 286.174 616.017 287.677 614.393 287.677ZM614.393 281.959C613.303 281.959 612.411 283.023 612.411 284.327C612.411 285.632 613.294 286.696 614.393 286.696C615.491 286.696 616.374 285.635 616.374 284.327C616.374 283.02 615.48 281.959 614.393 281.959V281.959Z" fill="white"/>
<path d="M635.61 256.098L615.544 273.608L639.463 301.133L659.528 283.622L635.61 256.098Z" fill="#B5453C"/>
<path d="M633.924 283.715C633.924 283.715 626.564 284.566 626.595 286.324C626.626 288.083 628.427 291.668 629.335 291.827C630.244 291.986 635.319 286.968 635.319 286.968L633.924 283.715Z" fill="#FFB27D"/>
<path d="M636.384 235.53C636.384 235.53 646.197 236.22 649.97 245.385C653.743 254.55 660.871 269.941 660.871 272.53C660.871 275.12 656.883 283.099 635.467 287.689C635.467 287.689 633.253 285.354 633.386 283.508C633.386 283.508 646.755 272 646.718 270.655C646.65 268.103 644.527 264.753 632.789 252.987C629.59 249.776 636.384 235.53 636.384 235.53Z" fill="#F9DDBF"/>
<path d="M432.98 433.825H432.878C432.737 433.825 432.596 433.796 432.466 433.741C432.336 433.686 432.217 433.606 432.118 433.504C432.02 433.403 431.942 433.282 431.89 433.15C431.838 433.018 431.813 432.877 431.817 432.735L433.427 362.718L438.177 362.151L434.126 432.727C434.113 433.022 433.986 433.301 433.772 433.506C433.559 433.71 433.275 433.824 432.98 433.825Z" fill="#B0D4FF"/>
<path d="M405.308 433.825H405.215C405.074 433.824 404.934 433.796 404.803 433.741C404.673 433.685 404.555 433.605 404.456 433.503C404.357 433.402 404.28 433.282 404.228 433.15C404.176 433.018 404.151 432.877 404.154 432.735L405.764 362.718L410.514 362.151L406.463 432.727C406.449 433.024 406.321 433.304 406.106 433.509C405.891 433.713 405.605 433.826 405.308 433.825V433.825Z" fill="#95C0F4"/>
<path d="M481.666 433.825H481.765C481.906 433.825 482.047 433.796 482.177 433.741C482.308 433.686 482.426 433.606 482.526 433.504C482.625 433.403 482.703 433.283 482.755 433.151C482.807 433.019 482.832 432.877 482.829 432.735L481.216 362.718L476.469 362.151L480.517 432.727C480.531 433.023 480.658 433.302 480.872 433.506C481.086 433.71 481.37 433.824 481.666 433.825V433.825Z" fill="#B0D4FF"/>
<path d="M402.164 358.375V310.398C402.164 306.344 403.771 302.456 406.631 299.589C409.492 296.722 413.372 295.112 417.417 295.112H451.919C455.965 295.112 459.844 296.722 462.705 299.589C465.566 302.456 467.173 306.344 467.173 310.398V360.21L402.164 358.375Z" fill="#B0D4FF"/>
<path d="M402.164 358.375H473.344V365.949H406.743C405.529 365.949 404.364 365.465 403.505 364.605C402.646 363.744 402.164 362.577 402.164 361.359V358.375Z" fill="#95C0F4"/>
<path d="M481.326 358.375H430.936C429.066 358.375 427.551 359.894 427.551 361.768V362.556C427.551 364.43 429.066 365.949 430.936 365.949H481.326C483.195 365.949 484.711 364.43 484.711 362.556V361.768C484.711 359.894 483.195 358.375 481.326 358.375Z" fill="#B0D4FF"/>
<path d="M479.375 346.422C474.433 355.04 468.217 358.367 468.217 358.367H442.36C442.36 358.367 483.137 339.847 479.375 346.422Z" fill="#233862"/>
<path d="M459.511 413.098C459.203 413.438 458.999 413.859 458.923 414.312C458.847 414.764 458.903 415.229 459.083 415.651V415.651C459.7 417.353 461.738 419.265 464.105 421.168C464.408 421.415 464.671 421.636 464.911 421.843L465.093 422.005L465.231 422.13C467.439 424.169 466.607 424.637 470.573 428.773C475.101 433.487 478.215 433.572 479.093 433.144C479.84 432.778 478.32 430.276 476.633 427.471C476.551 427.335 476.471 427.187 476.387 427.059L475.716 425.925C473.734 422.544 474.247 420.958 474.717 415.923C475.096 411.833 481.065 393.075 481.065 393.075L472.401 391.58C472.401 391.58 469.791 406.517 466.918 408.818C465.381 410.043 463.66 410.06 462.183 410.968C462.078 411.03 461.976 411.095 461.874 411.163C461.002 411.698 460.207 412.349 459.511 413.098V413.098Z" fill="#FFB27D"/>
<path d="M459.511 413.098C459.203 413.438 458.999 413.859 458.923 414.312C458.847 414.764 458.903 415.229 459.083 415.651V415.651C459.839 417.353 461.826 419.253 464.113 421.151C464.413 421.401 464.679 421.63 464.911 421.843L465.093 422.005L465.231 422.13C467.439 424.169 466.607 424.637 470.573 428.773C475.102 433.487 478.215 433.572 479.093 433.144C479.84 432.778 478.32 430.276 476.633 427.471C473.47 426.231 470.69 424.176 468.574 421.514C465.851 418.031 464.045 413.572 462.183 410.968C462.078 411.03 461.976 411.095 461.874 411.164C461.002 411.698 460.207 412.349 459.511 413.098Z" fill="#233862"/>
<path d="M529.369 407.683C529.904 410.364 533.716 409.916 537.976 408.875C542.236 407.834 541.223 409.07 547.283 408.398C553.343 407.726 555.18 405.462 555.364 404.557C555.531 403.757 552.534 403.474 549.324 403.102L548.107 402.957C544.481 402.501 541.826 400.155 538.531 398.229C535.418 396.405 530.753 388.97 530.753 388.97L522.439 389.631C522.439 389.631 526.801 396.272 528.488 399.156C529.482 400.858 529.428 403.099 529.306 404.83C529.199 405.779 529.22 406.739 529.369 407.683V407.683Z" fill="#FFB27D"/>
<path d="M537.968 408.874C542.214 407.831 541.215 409.07 547.275 408.398C553.335 407.726 555.172 405.462 555.356 404.557C555.523 403.757 552.525 403.474 549.316 403.102L549.285 403.165C546.689 404.835 543.69 405.77 540.606 405.868C536.493 405.97 532.137 404.787 529.298 404.835C529.192 405.779 529.213 406.733 529.36 407.672C529.904 410.364 533.722 409.916 537.968 408.874Z" fill="#233862"/>
<path d="M497.514 354.418L489.744 375.372L479.596 402.733C477.789 402.867 475.972 402.701 474.218 402.24C471.793 401.536 469.007 399.687 469.007 399.687C469.007 399.687 471.838 370.309 477.08 353.451C478.425 349.123 479.936 345.619 481.609 343.651C489.735 334.007 497.514 354.418 497.514 354.418Z" fill="#233862"/>
<path d="M489.614 321.14C484.519 319.495 470.001 321.608 455.415 324.467L452.361 319.421L420.857 316.956C420.857 316.956 410.46 340.057 416.152 354.779C417.001 356.943 418.652 358.33 421.485 358.375H421.944H446.785C462.452 358.375 479.942 347.596 482.206 347.131C485.908 346.388 487.392 353.811 491.094 361.598C494.796 369.384 525.91 396.113 525.91 396.113C525.91 396.113 530.691 396.161 532.666 395.418C534.789 394.621 535.568 393.585 535.568 393.585C535.568 393.585 501.094 324.85 489.614 321.14Z" fill="#1E88E5"/>
<path d="M451.124 227.489C447.087 225.367 440.934 225.078 439.949 224.936C428.009 223.328 420.826 240.713 420.401 245.98C419.623 255.69 414.496 257.17 407.284 263.249C392.817 275.446 397.06 289.609 404.969 294.874C409.716 298.034 418.08 294.874 418.08 294.874C418.199 294.956 440.959 282.109 452.177 275.934C468.996 273.54 461.407 232.901 451.124 227.489Z" fill="#233862"/>
<path d="M442.774 270.672C442.822 270.704 437.254 272.61 433.529 270.956C430.028 269.404 427.373 263.626 427.424 263.624C429.017 263.55 430.769 262.154 432.114 252.992L432.793 253.236L444.203 257.352C444.203 257.352 443.377 261.02 442.842 264.514C442.391 267.447 442.151 270.258 442.774 270.672Z" fill="#FFB27D"/>
<path d="M444.203 257.355C444.203 257.355 443.376 261.022 442.841 264.517C436.289 263.334 433.716 256.79 432.793 253.239L444.203 257.355Z" fill="#ED975D"/>
<path d="M445.904 260.994C445.904 260.994 430.291 258.895 431.752 249.174C433.212 239.453 432.171 232.632 442.199 233.573C452.228 234.515 453.606 238.503 453.909 241.867C454.212 245.232 450.003 261.292 445.904 260.994Z" fill="#FFB27D"/>
<path d="M453.334 236.526C453.334 236.526 443.34 245.155 436.543 245.853C429.747 246.551 427.171 244.361 427.171 244.361C429.885 241.929 432.069 238.962 433.588 235.647C433.934 234.867 434.482 234.194 435.175 233.698C435.868 233.202 436.68 232.9 437.528 232.824C442.383 232.41 451.585 232.212 453.334 236.526Z" fill="#233862"/>
<path d="M447.087 235.752C447.087 235.752 450.43 238.991 451.483 241.394C452.499 243.714 452.802 249.259 451.996 251.461C451.996 251.461 457.204 241.311 454.26 236.379C451.127 231.151 447.087 235.752 447.087 235.752Z" fill="#233862"/>
<path d="M455.918 293.719C455.446 325.386 455.788 318.769 452.332 321.773C451.5 322.496 449.159 322.927 446.077 323.131C436.388 323.775 419.353 322.175 418.705 320.383C416.469 314.174 418.048 312.245 416.183 302.737C415.988 301.727 415.747 300.632 415.467 299.441C413.91 292.916 412.399 290.69 417.913 280.2C422.917 270.698 428.103 262.988 428.581 263.266C441.777 271.118 442.841 264.517 442.841 264.517C442.841 264.517 456.165 278.271 455.918 293.719Z" fill="white"/>
<path d="M489.744 375.372L479.596 402.733C477.789 402.867 475.972 402.701 474.218 402.24C471.793 401.536 469.007 399.687 469.007 399.687C469.007 399.687 471.838 370.309 477.08 353.451L489.744 375.372Z" fill="#1E88E5"/>
<path d="M442.842 264.517C442.842 264.517 456.429 266.823 458.016 272.683L468.996 312.985C468.996 312.985 462.092 314.228 458.902 311.034C455.712 307.84 447.807 281.383 447.807 281.383L442.842 264.517Z" fill="white"/>
<path d="M446.077 323.131C436.388 323.775 419.354 322.175 418.706 320.383C416.469 314.173 418.049 312.245 416.184 302.736L420.857 289.549C420.857 289.549 420.084 304.234 424.406 308.098C428.729 311.961 442.103 315.555 444.203 318.783C445.217 320.343 445.882 321.883 446.077 323.131Z" fill="#EBF3FF"/>
<path d="M434.976 316.956C434.976 316.956 444.534 314.823 446.077 315.671C447.62 316.519 451.39 319.617 451.86 320.695C452.33 321.772 448.426 319.878 447.155 319.537C446.335 319.316 444.166 320.071 443.096 320.428C438.585 321.934 435.819 321.16 435.819 321.16L434.976 316.956Z" fill="#FFB27D"/>
<path d="M428.573 263.258C428.573 263.258 415.736 264.052 411.306 270.261C405.051 279.003 392.645 316.264 399.755 321.234C407.763 326.827 436.204 322.697 436.204 322.697C436.204 322.697 437.149 318.264 435.833 316.119C434.517 313.975 413.118 310.512 412.13 309.522C411.142 308.532 424.474 290.233 424.474 287.252C424.474 284.271 428.573 263.258 428.573 263.258Z" fill="white"/>
<path d="M446.541 318.337C446.541 318.337 448.545 320.927 449.202 321.236C449.532 321.416 449.908 321.497 450.283 321.469L448.933 319.035L446.541 318.337Z" fill="#FFB27D"/>
<path d="M446.077 315.671L451.9 318.508C451.9 318.508 451.653 318.916 450.934 318.882C450.215 318.848 448.409 318.187 448.409 318.187L446.077 315.671Z" fill="#FFB27D"/>
<path d="M449.199 325.202H495.266L509.122 290.67H463.128L449.199 325.202Z" fill="#FB8C00"/>
<path d="M495.804 323.857H434.973V325.202H495.266L495.804 323.857Z" fill="#ED7D2B"/>
<path d="M483.635 307.936C483.984 306.722 483.284 305.738 482.073 305.738C480.861 305.738 479.596 306.722 479.242 307.936C478.889 309.15 479.593 310.134 480.805 310.134C482.016 310.134 483.29 309.15 483.635 307.936Z" fill="white"/>
<path d="M236.152 292.513H236.005C234.293 292.513 232.905 293.904 232.905 295.619V361.201C232.905 362.916 234.293 364.307 236.005 364.307H236.152C237.864 364.307 239.251 362.916 239.251 361.201V295.619C239.251 293.904 237.864 292.513 236.152 292.513Z" fill="#B0D4FF"/>
<path d="M236.05 433.825H235.948C235.806 433.825 235.666 433.796 235.535 433.741C235.405 433.686 235.286 433.606 235.187 433.504C235.088 433.403 235.01 433.283 234.958 433.151C234.906 433.019 234.881 432.877 234.884 432.735L236.497 362.718L241.244 362.151L237.196 432.727C237.182 433.022 237.055 433.301 236.841 433.505C236.628 433.709 236.345 433.824 236.05 433.825V433.825Z" fill="#95C0F4"/>
<path d="M312.407 433.825H312.509C312.65 433.824 312.79 433.796 312.92 433.741C313.051 433.685 313.169 433.605 313.268 433.503C313.366 433.402 313.444 433.282 313.496 433.15C313.548 433.018 313.573 432.877 313.57 432.735L311.96 362.718L307.21 362.151L311.26 432.727C311.274 433.022 311.401 433.301 311.614 433.506C311.828 433.71 312.112 433.824 312.407 433.825V433.825Z" fill="#B0D4FF"/>
<path d="M312.067 358.375H232.905V361.362C232.905 362.579 233.388 363.747 234.247 364.608C235.106 365.468 236.27 365.952 237.485 365.952H312.067C312.968 365.952 313.832 365.593 314.469 364.955C315.106 364.316 315.464 363.451 315.464 362.548V361.762C315.46 360.862 315.1 360.001 314.463 359.366C313.827 358.732 312.965 358.375 312.067 358.375V358.375Z" fill="#B0D4FF"/>
<path d="M351.698 418.856C351.698 418.856 350.532 433.374 353.113 433.567C353.458 433.592 366.272 433.592 366.272 433.592L382.627 433.499C382.627 433.499 382.52 429.547 377.739 428.713C372.958 427.879 363.496 423.849 360.6 417.515C357.566 410.854 351.698 418.856 351.698 418.856Z" fill="#163560"/>
<path d="M253.308 339.325C253.308 339.325 253.851 353.593 256.359 358.375H314.204C314.204 358.375 328.102 359.816 329.367 360.758C330.967 361.941 323.802 373.698 350.662 419.639L363.821 419.304C363.821 419.304 350.062 344.794 347.619 342.911C343.962 340.074 301.169 330.271 293.838 330.055C286.507 329.84 253.308 339.325 253.308 339.325Z" fill="#22539F"/>
<path d="M285.734 254.788C290.198 257.559 290.45 263.079 290.45 263.079C279.564 265.916 263.721 253.786 263.721 253.786C263.721 253.786 270.73 249.069 273.325 238.702C273.459 238.178 273.578 237.642 273.682 237.093C274.043 235.223 274.241 233.325 274.273 231.42L279.275 235.911L287.591 243.376C287.591 243.376 287.402 246.474 286.36 251.804C286.183 252.73 285.974 253.725 285.734 254.788Z" fill="#FFB27D"/>
<path d="M291.885 312.063C291.515 314.497 292.268 316.454 292.63 318.267C292.782 318.932 292.837 319.615 292.794 320.295C292.197 327.029 294.594 327.883 293.844 330.056C293.844 330.056 291.297 331.556 286.598 333.338C284.56 334.106 282.117 334.934 279.306 335.714L278.862 335.834C267.981 338.784 256.54 339.413 253.308 339.325C247.132 339.161 245.886 323.478 248.176 303.721C251.745 272.947 256.569 258.027 269.286 247.248C270.087 246.567 269.547 248.879 273.815 250.936C277.778 252.839 282.53 253.284 286.224 252.465L289.131 255.452C294.908 264.594 295.514 275.444 295.022 284.489C294.402 295.932 292.961 305.057 291.885 312.063Z" fill="#B0D4FF"/>
<path d="M287.591 243.371C287.591 243.371 288.033 242.905 286.991 248.233C277.781 245.563 274.78 240.857 273.549 237.737C273.201 236.855 276.974 236.387 279.275 235.899L287.591 243.371Z" fill="#ED975D"/>
<path d="M291.871 243.396C291.871 243.396 274.098 245.949 272.683 234.833C271.267 223.716 268.024 216.56 279.309 214.461C290.594 212.362 293.346 216.321 294.719 219.915C296.091 223.509 296.459 242.446 291.871 243.396Z" fill="#FFB27D"/>
<path d="M358.765 325.784L360.124 326.21L371.257 290.543L369.899 290.117L358.765 325.784Z" fill="#1C468A"/>
<path d="M320.962 325.832L360.095 326.236L360.119 323.89L320.986 323.487L320.962 325.832Z" fill="#1C468A"/>
<path d="M267.016 214.685C266.875 214.517 266.543 214.381 265.805 214.336C266.229 214.099 266.704 213.969 267.189 213.956C267.35 212.929 267.911 211.119 269.683 210.682C269.393 210.849 269.145 211.079 268.957 211.355C268.769 211.631 268.645 211.946 268.596 212.276C270.659 210.186 275.058 208.685 287.198 209.743C303.196 211.136 297.841 221.373 295.758 222.573C293.674 223.773 288.486 220.383 284.622 220.661C280.759 220.939 279.98 226.522 278.664 227.279C277.348 228.036 277.871 226.683 276.116 225.861C274.361 225.038 274.158 227.985 274.653 229.903C275.148 231.82 272.697 234.325 272.697 234.325L270.254 231.65C267.814 228.975 265.584 217.708 266.722 215.317C266.815 215.107 266.914 214.897 267.016 214.685Z" fill="#2C3A64"/>
<path d="M293.844 330.055C293.844 330.055 291.297 331.556 286.598 333.337C266.32 318.511 266.43 283.414 266.32 282.813L291.795 305.29L292.644 318.267C292.796 318.931 292.851 319.614 292.808 320.295C292.197 327.029 294.594 327.883 293.844 330.055Z" fill="#91B8EF"/>
<path d="M330.556 313.535C331.702 313.666 332.862 313.477 333.908 312.99C335.629 312.182 341.564 309.626 342.682 309.975C343.8 310.324 347.438 312.383 348.292 312.775C349.147 313.166 350.664 315.175 350.664 315.175C350.036 315.81 347.834 314.352 346.838 314.38C345.841 314.409 338.555 318.4 336.387 318.488C334.219 318.576 330.839 318.13 330.839 318.13L330.556 313.535Z" fill="#FFB27D"/>
<path d="M343.792 313.864C343.812 313.983 346.461 316.942 348.479 316.003L346.266 313.813L343.792 313.864Z" fill="#FFB27D"/>
<path d="M333.908 313.002C333.908 313.002 336.283 310.798 337.069 309.74C337.069 309.74 337.545 309.955 337.562 310.358C337.596 311.028 336.942 312.259 336.942 312.259L333.908 313.002Z" fill="#FFB27D"/>
<path d="M287.181 260.637C274.126 252.672 258.72 266.593 265.199 280.461C272.708 296.547 285.214 316.165 295.149 317.336C302.225 318.162 322.469 320.763 331.04 319.16C331.04 319.16 335.193 319.365 332.942 312.665C332.942 312.665 305.245 304.929 300.646 298.927C298.18 295.713 293.98 289.204 287.484 260.835C287.464 260.708 287.294 260.699 287.181 260.637Z" fill="#B0D4FF"/>
<path d="M638.169 433.825H638.311C638.507 433.825 638.7 433.786 638.881 433.709C639.061 433.633 639.224 433.522 639.361 433.381C639.498 433.241 639.605 433.075 639.676 432.892C639.748 432.71 639.782 432.515 639.777 432.318L637.552 335.592L630.991 334.823L636.584 432.321C636.607 432.727 636.784 433.11 637.078 433.389C637.373 433.669 637.764 433.825 638.169 433.825V433.825Z" fill="#739AF0"/>
<path d="M315.648 433.825H315.506C315.311 433.825 315.117 433.786 314.937 433.709C314.756 433.633 314.593 433.522 314.456 433.381C314.32 433.241 314.212 433.075 314.141 432.892C314.069 432.71 314.035 432.515 314.04 432.318L316.268 335.592L322.826 334.823L317.233 432.321C317.21 432.727 317.034 433.11 316.739 433.389C316.444 433.669 316.054 433.825 315.648 433.825V433.825Z" fill="#739AF0"/>
<path d="M309.098 325.701H643.879C645.048 325.701 646.17 326.167 646.997 326.995C647.824 327.824 648.289 328.948 648.289 330.12V332.957C648.289 334.13 647.824 335.255 646.996 336.084C646.169 336.913 645.046 337.379 643.876 337.379H309.098C307.928 337.379 306.807 336.914 305.98 336.085C305.153 335.256 304.688 334.132 304.688 332.96V330.123C304.688 329.543 304.801 328.968 305.023 328.431C305.244 327.895 305.569 327.407 305.979 326.996C306.388 326.586 306.874 326.26 307.41 326.038C307.945 325.815 308.519 325.701 309.098 325.701Z" fill="#739AF0"/>
<path d="M594.154 325.701H548.09L534.231 291.169H580.228L594.154 325.701Z" fill="#1E88E5"/>
<path d="M547.549 324.357H608.381V325.701H548.09L547.549 324.357Z" fill="#2B478B"/>
<path d="M559.718 308.429C559.37 307.215 560.072 306.231 561.283 306.231C562.495 306.231 563.757 307.215 564.114 308.429C564.47 309.643 563.76 310.628 562.549 310.628C561.337 310.628 560.066 309.649 559.718 308.429Z" fill="white"/>
<ellipse cx="25.4848" cy="24.3873" rx="25.4848" ry="24.3873" transform="matrix(0.24679 0.969069 -0.962482 0.271347 225.271 85.7816)" fill="url(#paint2_linear_105_779)"/>
<ellipse cx="13.2888" cy="12.7165" rx="13.2888" ry="12.7165" transform="matrix(0.24679 0.969069 -0.962482 0.271347 556.736 515.01)" fill="url(#paint3_linear_105_779)"/>
<defs>
<filter id="filter0_d_105_779" x="0.265625" y="0" width="742.882" height="649" filterUnits="userSpaceOnUse" color-interpolation-filters="sRGB">
<feFlood flood-opacity="0" result="BackgroundImageFix"/>
<feColorMatrix in="SourceAlpha" type="matrix" values="0 0 0 0 0 0 0 0 0 0 0 0 0 0 0 0 0 0 127 0" result="hardAlpha"/>
<feOffset dy="4"/>
<feGaussianBlur stdDeviation="34"/>
<feColorMatrix type="matrix" values="0 0 0 0 0.129167 0 0 0 0 0.129167 0 0 0 0 0.129167 0 0 0 0.06 0"/>
<feBlend mode="normal" in2="BackgroundImageFix" result="effect1_dropShadow_105_779"/>
<feBlend mode="normal" in="SourceGraphic" in2="effect1_dropShadow_105_779" result="shape"/>
</filter>
<radialGradient id="paint0_radial_105_779" cx="0" cy="0" r="1" gradientUnits="userSpaceOnUse" gradientTransform="translate(562.294 340.718) rotate(161.313) scale(446.218 1382.67)">
<stop stop-color="#EBF6FF"/>
<stop offset="0.296875" stop-color="#D8EDEE"/>
<stop offset="0.534613" stop-color="#EBEAF8"/>
<stop offset="0.76512" stop-color="#EFF4F9"/>
<stop offset="1" stop-color="#EFF8FF"/>
</radialGradient>
<radialGradient id="paint1_radial_105_779" cx="0" cy="0" r="1" gradientUnits="userSpaceOnUse" gradientTransform="translate(562.294 340.718) rotate(161.313) scale(446.218 1382.67)">
<stop stop-color="#EBF6FF"/>
<stop offset="0.296875" stop-color="#D8EDEE"/>
<stop offset="0.534613" stop-color="#EBEAF8"/>
<stop offset="0.76512" stop-color="#EFF4F9"/>
<stop offset="1" stop-color="#EFF8FF"/>
</radialGradient>
<linearGradient id="paint2_linear_105_779" x1="6.4146e-05" y1="24.3873" x2="50.9697" y2="24.3873" gradientUnits="userSpaceOnUse">
<stop stop-color="#E0EFFF"/>
<stop offset="0.566666" stop-color="#B1D2F9"/>
<stop offset="1" stop-color="#90BFF8"/>
</linearGradient>
<linearGradient id="paint3_linear_105_779" x1="3.34483e-05" y1="12.7165" x2="26.5776" y2="12.7165" gradientUnits="userSpaceOnUse">
<stop stop-color="#E0EFFF"/>
<stop offset="0.566666" stop-color="#B1D2F9"/>
<stop offset="1" stop-color="#90BFF8"/>
</linearGradient>
</defs>
</svg>
