<svg width="98" height="98" viewBox="0 0 98 98" fill="none" xmlns="http://www.w3.org/2000/svg">
<circle cx="49" cy="49" r="49" fill="white"/>
<g clip-path="url(#clip0_1_649)">
<path d="M48.9999 65C53.2433 65 57.313 63.3143 60.3136 60.3137C63.3142 57.3131 64.9999 53.2435 64.9999 49C64.9999 44.7565 63.3142 40.6869 60.3136 37.6863C57.313 34.6857 53.2433 33 48.9999 33C44.7564 33 40.6867 34.6857 37.6862 37.6863C34.6856 40.6869 32.9999 44.7565 32.9999 49C32.9999 53.2435 34.6856 57.3131 37.6862 60.3137C40.6867 63.3143 44.7564 65 48.9999 65ZM48.9999 69C37.9539 69 28.9999 60.046 28.9999 49C28.9999 37.954 37.9539 29 48.9999 29C60.0459 29 68.9999 37.954 68.9999 49C68.9999 60.046 60.0459 69 48.9999 69ZM48.9999 57C51.1216 57 53.1564 56.1571 54.6567 54.6569C56.157 53.1566 56.9999 51.1217 56.9999 49C56.9999 46.8783 56.157 44.8434 54.6567 43.3431C53.1564 41.8429 51.1216 41 48.9999 41C46.8781 41 44.8433 41.8429 43.343 43.3431C41.8427 44.8434 40.9999 46.8783 40.9999 49C40.9999 51.1217 41.8427 53.1566 43.343 54.6569C44.8433 56.1571 46.8781 57 48.9999 57ZM48.9999 61C45.8173 61 42.765 59.7357 40.5146 57.4853C38.2641 55.2348 36.9999 52.1826 36.9999 49C36.9999 45.8174 38.2641 42.7652 40.5146 40.5147C42.765 38.2643 45.8173 37 48.9999 37C52.1825 37 55.2347 38.2643 57.4851 40.5147C59.7356 42.7652 60.9999 45.8174 60.9999 49C60.9999 52.1826 59.7356 55.2348 57.4851 57.4853C55.2347 59.7357 52.1825 61 48.9999 61ZM48.9999 53C47.939 53 46.9216 52.5786 46.1714 51.8284C45.4213 51.0783 44.9999 50.0609 44.9999 49C44.9999 47.9391 45.4213 46.9217 46.1714 46.1716C46.9216 45.4214 47.939 45 48.9999 45C50.0607 45 51.0781 45.4214 51.8283 46.1716C52.5784 46.9217 52.9999 47.9391 52.9999 49C52.9999 50.0609 52.5784 51.0783 51.8283 51.8284C51.0781 52.5786 50.0607 53 48.9999 53Z" fill="#2F80ED"/>
</g>
<defs>
<clipPath id="clip0_1_649">
<rect width="48" height="48" fill="white" transform="translate(25 25)"/>
</clipPath>
</defs>
</svg>
