<svg width="98" height="98" viewBox="0 0 98 98" fill="none" xmlns="http://www.w3.org/2000/svg">
<circle cx="49" cy="49" r="49" fill="white"/>
<g clip-path="url(#clip0_1_697)">
<path d="M42.93 61C42.6922 62.6686 41.8604 64.1954 40.5874 65.2999C39.3143 66.4044 37.6854 67.0125 36 67.0125C34.3146 67.0125 32.6857 66.4044 31.4126 65.2999C30.1396 64.1954 29.3078 62.6686 29.07 61H27V37C27 36.4696 27.2107 35.9609 27.5858 35.5858C27.9609 35.2107 28.4696 35 29 35H57C57.5304 35 58.0391 35.2107 58.4142 35.5858C58.7893 35.9609 59 36.4696 59 37V41H65L71 49.112V61H66.93C66.6922 62.6686 65.8604 64.1954 64.5874 65.2999C63.3143 66.4044 61.6854 67.0125 60 67.0125C58.3146 67.0125 56.6857 66.4044 55.4126 65.2999C54.1396 64.1954 53.3078 62.6686 53.07 61H42.93ZM55 39H31V55.1C31.7891 54.2944 32.7612 53.6914 33.8335 53.3422C34.9058 52.9931 36.0466 52.9082 37.1588 53.0948C38.2709 53.2814 39.3215 53.7339 40.2212 54.4138C41.1209 55.0937 41.843 55.981 42.326 57H53.674C54.01 56.294 54.46 55.652 55 55.1V39ZM59 51H67V50.43L62.984 45H59V51ZM60 63C60.7959 63 61.5592 62.6838 62.122 62.121C62.6848 61.5582 63.001 60.7949 63.001 59.999C63.001 59.2031 62.6848 58.4398 62.122 57.877C61.5592 57.3142 60.7959 56.998 60 56.998C59.2041 56.998 58.4408 57.3142 57.878 57.877C57.3152 58.4398 56.999 59.2031 56.999 59.999C56.999 60.7949 57.3152 61.5582 57.878 62.121C58.4408 62.6838 59.2041 63 60 63ZM39 60C39 59.606 38.9224 59.2159 38.7716 58.8519C38.6209 58.488 38.3999 58.1573 38.1213 57.8787C37.8427 57.6001 37.512 57.3791 37.1481 57.2284C36.7841 57.0776 36.394 57 36 57C35.606 57 35.2159 57.0776 34.8519 57.2284C34.488 57.3791 34.1573 57.6001 33.8787 57.8787C33.6001 58.1573 33.3791 58.488 33.2284 58.8519C33.0776 59.2159 33 59.606 33 60C33 60.7956 33.3161 61.5587 33.8787 62.1213C34.4413 62.6839 35.2044 63 36 63C36.7956 63 37.5587 62.6839 38.1213 62.1213C38.6839 61.5587 39 60.7956 39 60Z" fill="#2F80ED"/>
</g>
<defs>
<clipPath id="clip0_1_697">
<rect width="48" height="48" fill="white" transform="translate(25 25)"/>
</clipPath>
</defs>
</svg>
