<svg width="90" height="90" viewBox="0 0 90 90" fill="none" xmlns="http://www.w3.org/2000/svg">
<g clip-path="url(#clip0_342_611)">
<path d="M13.738 77.368C9.44001 73.2169 6.01181 68.2514 3.65341 62.7612C1.295 57.271 0.0536208 51.3661 0.00169905 45.391C-0.0502227 39.416 1.08835 33.4904 3.35099 27.96C5.61363 22.4297 8.95502 17.4054 13.1802 13.1802C17.4054 8.95502 22.4297 5.61363 27.96 3.35099C33.4904 1.08835 39.416 -0.0502227 45.391 0.00169905C51.3661 0.0536208 57.271 1.295 62.7612 3.65341C68.2513 6.01181 73.2169 9.44001 77.368 13.738C85.5651 22.2251 90.1008 33.5922 89.9983 45.391C89.8958 57.1899 85.1632 68.4764 76.8198 76.8198C68.4764 85.1632 57.1899 89.8958 45.391 89.9983C33.5922 90.1008 22.2251 85.5651 13.738 77.368ZM20.083 71.023C26.838 77.778 35.9999 81.573 45.553 81.573C55.1061 81.573 64.2679 77.778 71.023 71.023C77.778 64.2679 81.573 55.1061 81.573 45.553C81.573 35.9999 77.778 26.838 71.023 20.083C64.2679 13.3279 55.1061 9.53295 45.553 9.53295C35.9999 9.53295 26.838 13.3279 20.083 20.083C13.3279 26.838 9.53295 35.9999 9.53295 45.553C9.53295 55.1061 13.3279 64.2679 20.083 71.023ZM64.633 32.818L51.898 45.553L64.633 58.288L58.288 64.633L45.553 51.898L32.818 64.633L26.473 58.288L39.208 45.553L26.473 32.818L32.818 26.473L45.553 39.208L58.288 26.473L64.633 32.818Z" fill="#F24E1E"/>
</g>
<defs>
<clipPath id="clip0_342_611">
<rect width="90" height="90" fill="white"/>
</clipPath>
</defs>
</svg>
