<svg width="32" height="32" viewBox="0 0 32 32" fill="none" xmlns="http://www.w3.org/2000/svg">
<g clip-path="url(#clip0_1_79)">
<path d="M6.66667 10.6667V26.6667H12V10.6667H6.66667ZM4 9.33341L9.33333 2.66675L14.6667 9.33341V29.3334H4V9.33341ZM25.3333 21.3334V18.6667H21.3333V16.0001H25.3333V13.3334H22.6667V10.6667H25.3333V8.00008H20V26.6667H25.3333V24.0001H22.6667V21.3334H25.3333ZM18.6667 5.33341H26.6667C27.0203 5.33341 27.3594 5.47389 27.6095 5.72394C27.8595 5.97399 28 6.31313 28 6.66675V28.0001C28 28.3537 27.8595 28.6928 27.6095 28.9429C27.3594 29.1929 27.0203 29.3334 26.6667 29.3334H18.6667C18.313 29.3334 17.9739 29.1929 17.7239 28.9429C17.4738 28.6928 17.3333 28.3537 17.3333 28.0001V6.66675C17.3333 6.31313 17.4738 5.97399 17.7239 5.72394C17.9739 5.47389 18.313 5.33341 18.6667 5.33341V5.33341Z" fill="#1E88E5"/>
</g>
<defs>
<clipPath id="clip0_1_79">
<rect width="32" height="32" fill="white"/>
</clipPath>
</defs>
</svg>
