<svg width="32" height="32" viewBox="0 0 32 32" fill="none" xmlns="http://www.w3.org/2000/svg">
<g id="Frame" clip-path="url(#clip0_1_73)">
<path id="Vector" d="M7.99984 25.3334H3.99984C3.64622 25.3334 3.30708 25.1929 3.05703 24.9429C2.80698 24.6928 2.6665 24.3537 2.6665 24.0001V10.6667C2.6665 10.3131 2.80698 9.97399 3.05703 9.72394C3.30708 9.47389 3.64622 9.33341 3.99984 9.33341H7.99984V4.00008C7.99984 3.64646 8.14031 3.30732 8.39036 3.05727C8.64041 2.80722 8.97955 2.66675 9.33317 2.66675H22.6665C23.0201 2.66675 23.3593 2.80722 23.6093 3.05727C23.8594 3.30732 23.9998 3.64646 23.9998 4.00008V9.33341H27.9998C28.3535 9.33341 28.6926 9.47389 28.9426 9.72394C29.1927 9.97399 29.3332 10.3131 29.3332 10.6667V24.0001C29.3332 24.3537 29.1927 24.6928 28.9426 24.9429C28.6926 25.1929 28.3535 25.3334 27.9998 25.3334H23.9998V28.0001C23.9998 28.3537 23.8594 28.6928 23.6093 28.9429C23.3593 29.1929 23.0201 29.3334 22.6665 29.3334H9.33317C8.97955 29.3334 8.64041 29.1929 8.39036 28.9429C8.14031 28.6928 7.99984 28.3537 7.99984 28.0001V25.3334ZM7.99984 22.6667V21.3334C7.99984 20.9798 8.14031 20.6407 8.39036 20.3906C8.64041 20.1406 8.97955 20.0001 9.33317 20.0001H22.6665C23.0201 20.0001 23.3593 20.1406 23.6093 20.3906C23.8594 20.6407 23.9998 20.9798 23.9998 21.3334V22.6667H26.6665V12.0001H5.33317V22.6667H7.99984ZM10.6665 5.33341V9.33341H21.3332V5.33341H10.6665ZM10.6665 22.6667V26.6667H21.3332V22.6667H10.6665ZM6.6665 13.3334H10.6665V16.0001H6.6665V13.3334Z" fill="#2F80ED"/>
</g>
<defs>
<clipPath id="clip0_1_73">
<rect width="32" height="32" fill="white"/>
</clipPath>
</defs>
</svg>
