<svg width="98" height="98" viewBox="0 0 98 98" fill="none" xmlns="http://www.w3.org/2000/svg">
<circle cx="49" cy="49" r="49" fill="white"/>
<g clip-path="url(#clip0_1_681)">
<path d="M65.1661 55.4L67.5701 56.842C67.7184 56.9308 67.8411 57.0565 67.9264 57.2069C68.0116 57.3573 68.0564 57.5272 68.0564 57.7C68.0564 57.8729 68.0116 58.0428 67.9264 58.1931C67.8411 58.3435 67.7184 58.4692 67.5701 58.558L50.0301 69.082C49.719 69.2689 49.363 69.3676 49.0001 69.3676C48.6372 69.3676 48.2811 69.2689 47.9701 69.082L30.4301 58.558C30.2818 58.4692 30.159 58.3435 30.0738 58.1931C29.9885 58.0428 29.9437 57.8729 29.9437 57.7C29.9437 57.5272 29.9885 57.3573 30.0738 57.2069C30.159 57.0565 30.2818 56.9308 30.4301 56.842L32.8341 55.4L49.0001 65.1L65.1661 55.4ZM65.1661 46L67.5701 47.442C67.7184 47.5308 67.8411 47.6565 67.9264 47.8069C68.0116 47.9573 68.0564 48.1272 68.0564 48.3C68.0564 48.4729 68.0116 48.6428 67.9264 48.7931C67.8411 48.9435 67.7184 49.0692 67.5701 49.158L49.0001 60.3L30.4301 49.158C30.2818 49.0692 30.159 48.9435 30.0738 48.7931C29.9885 48.6428 29.9437 48.4729 29.9437 48.3C29.9437 48.1272 29.9885 47.9573 30.0738 47.8069C30.159 47.6565 30.2818 47.5308 30.4301 47.442L32.8341 46L49.0001 55.7L65.1661 46ZM50.0281 27.618L67.5701 38.142C67.7184 38.2308 67.8411 38.3565 67.9264 38.5069C68.0116 38.6573 68.0564 38.8272 68.0564 39C68.0564 39.1729 68.0116 39.3428 67.9264 39.4931C67.8411 39.6435 67.7184 39.7692 67.5701 39.858L49.0001 51L30.4301 39.858C30.2818 39.7692 30.159 39.6435 30.0738 39.4931C29.9885 39.3428 29.9437 39.1729 29.9437 39C29.9437 38.8272 29.9885 38.6573 30.0738 38.5069C30.159 38.3565 30.2818 38.2308 30.4301 38.142L47.9701 27.618C48.2811 27.4311 48.6372 27.3324 49.0001 27.3324C49.363 27.3324 49.719 27.4311 50.0301 27.618H50.0281ZM49.0001 31.664L36.7741 39L49.0001 46.336L61.2261 39L49.0001 31.664Z" fill="#2F80ED"/>
</g>
<defs>
<clipPath id="clip0_1_681">
<rect width="48" height="48" fill="white" transform="translate(25 25)"/>
</clipPath>
</defs>
</svg>
