<svg width="32" height="32" viewBox="0 0 32 32" fill="none" xmlns="http://www.w3.org/2000/svg">
<g id="gg:scroll-v">
<g id="Group">
<path id="Vector" d="M12.2294 22.4241L10.3428 24.3094L16.0001 29.9667L21.6574 24.3094L19.7708 22.4241L16.0001 26.1961L12.2294 22.4241V22.4241Z" fill="#B4BBCE"/>
<path id="Vector_2" d="M19.7708 9.57611L21.6574 7.69078L16.0001 2.03345L10.3428 7.69078L12.2294 9.57611L16.0001 5.80545L19.7708 9.57611Z" fill="#B4BBCE"/>
<path id="Vector_3" fill-rule="evenodd" clip-rule="evenodd" d="M16 12C17.0609 12 18.0783 12.4214 18.8284 13.1716C19.5786 13.9217 20 14.9391 20 16C20 17.0609 19.5786 18.0783 18.8284 18.8284C18.0783 19.5786 17.0609 20 16 20C14.9391 20 13.9217 19.5786 13.1716 18.8284C12.4214 18.0783 12 17.0609 12 16C12 14.9391 12.4214 13.9217 13.1716 13.1716C13.9217 12.4214 14.9391 12 16 12V12ZM16 14.6667C16.3536 14.6667 16.6928 14.8071 16.9428 15.0572C17.1929 15.3072 17.3333 15.6464 17.3333 16C17.3333 16.3536 17.1929 16.6928 16.9428 16.9428C16.6928 17.1929 16.3536 17.3333 16 17.3333C15.6464 17.3333 15.3072 17.1929 15.0572 16.9428C14.8071 16.6928 14.6667 16.3536 14.6667 16C14.6667 15.6464 14.8071 15.3072 15.0572 15.0572C15.3072 14.8071 15.6464 14.6667 16 14.6667V14.6667Z" fill="#B4BBCE"/>
</g>
</g>
</svg>
