<svg width="98" height="98" viewBox="0 0 98 98" fill="none" xmlns="http://www.w3.org/2000/svg">
<circle cx="49" cy="49" r="49" fill="white"/>
<g clip-path="url(#clip0_1_633)">
<path d="M65 29C66.104 29 67 29.896 67 31V38.514L63 42.514V33H35V65H63V59.484L67 55.484V67C67 68.104 66.104 69 65 69H33C31.896 69 31 68.104 31 67V31C31 29.896 31.896 29 33 29H65ZM68.556 42.616L71.384 45.444L55.828 61L52.996 60.996L53 58.172L68.556 42.616ZM51 49V53H41V49H51ZM57 41V45H41V41H57Z" fill="#2F80ED"/>
</g>
<defs>
<clipPath id="clip0_1_633">
<rect width="48" height="48" fill="white" transform="translate(25 25)"/>
</clipPath>
</defs>
</svg>
